<svg width="25" height="25" viewBox="0 0 25 25" xmlns="http://www.w3.org/2000/svg">
<path d="M6.25029 4.16666C5.69775 4.16666 5.16785 4.38616 4.77715 4.77686C4.38645 5.16756 4.16695 5.69746 4.16695 6.25V18.75C4.16695 19.3025 4.38645 19.8324 4.77715 20.2231C5.16785 20.6138 5.69775 20.8333 6.25029 20.8333H18.7503C19.3028 20.8333 19.8327 20.6138 20.2234 20.2231C20.6141 19.8324 20.8336 19.3025 20.8336 18.75V6.25C20.8336 5.69746 20.6141 5.16756 20.2234 4.77686C19.8327 4.38616 19.3028 4.16666 18.7503 4.16666H6.25029ZM6.25029 2.08333H18.7503C19.8554 2.08333 20.9152 2.52232 21.6966 3.30372C22.478 4.08512 22.917 5.14493 22.917 6.25V18.75C22.917 19.8551 22.478 20.9149 21.6966 21.6963C20.9152 22.4777 19.8554 22.9167 18.7503 22.9167H6.25029C5.14522 22.9167 4.08541 22.4777 3.30401 21.6963C2.52261 20.9149 2.08362 19.8551 2.08362 18.75V6.25C2.08362 5.14493 2.52261 4.08512 3.30401 3.30372C4.08541 2.52232 5.14522 2.08333 6.25029 2.08333V2.08333Z"/>
<path d="M14.4042 12.0688L10.2896 16.1833C10.1928 16.2801 10.0779 16.3568 9.9515 16.4091C9.82508 16.4614 9.68959 16.4883 9.55277 16.4882C9.41594 16.4882 9.28047 16.4612 9.15408 16.4088C9.0277 16.3564 8.91287 16.2796 8.81615 16.1828C8.71944 16.086 8.64274 15.9712 8.59042 15.8447C8.53811 15.7183 8.51121 15.5828 8.51126 15.446C8.51135 15.1697 8.62122 14.9047 8.81668 14.7094L12.9313 10.5948H9.19584C8.91957 10.5948 8.65462 10.4851 8.45927 10.2897C8.26392 10.0943 8.15417 9.8294 8.15417 9.55313C8.15417 9.27686 8.26392 9.01191 8.45927 8.81656C8.65462 8.62121 8.91957 8.51146 9.19584 8.51146H15.4458C15.5828 8.51105 15.7184 8.53771 15.845 8.58992C15.9715 8.64212 16.0865 8.71883 16.1833 8.81564C16.2801 8.91245 16.3569 9.02745 16.4091 9.15401C16.4613 9.28058 16.4879 9.41622 16.4875 9.55313V15.8031C16.4875 16.0794 16.3778 16.3444 16.1824 16.5397C15.9871 16.7351 15.7221 16.8448 15.4458 16.8448C15.1696 16.8448 14.9046 16.7351 14.7093 16.5397C14.5139 16.3444 14.4042 16.0794 14.4042 15.8031V12.0698V12.0688Z"/>
</svg>
