<svg width="10" height="10" viewBox="0 0 10 10" xmlns="http://www.w3.org/2000/svg">
<path d="M9.99433 0.874006C9.99433 0.416506 9.62433 0.0440064 9.166 0.0415064L2.50516 -0.000160217H2.50016C2.04183 -0.000160217 1.67016 0.36984 1.66683 0.828173C1.6635 1.28817 2.03433 1.66401 2.49516 1.66651L7.12683 1.69567L0.244329 8.57734C-0.0815041 8.90317 -0.0815041 9.43067 0.244329 9.75567C0.406829 9.91901 0.620163 9.99984 0.833496 9.99984C1.04683 9.99984 1.26016 9.91901 1.42266 9.75567L8.32933 2.84901L8.3335 7.50067C8.3335 7.96067 8.70683 8.33317 9.16683 8.33317H9.16766C9.62766 8.33317 10.0002 7.95901 10.0002 7.49901L9.99433 0.874006Z"/>
</svg>
