<svg width="21" height="21" viewBox="0 0 21 21" xmlns="http://www.w3.org/2000/svg">
<path d="M10.5 20.9167C4.74686 20.9167 0.083313 16.2531 0.083313 10.5C0.083313 4.74689 4.74686 0.0833435 10.5 0.0833435C16.2531 0.0833435 20.9166 4.74689 20.9166 10.5C20.9166 16.2531 16.2531 20.9167 10.5 20.9167ZM10.5 18.8333C12.7101 18.8333 14.8297 17.9554 16.3925 16.3926C17.9553 14.8298 18.8333 12.7101 18.8333 10.5C18.8333 8.28987 17.9553 6.17026 16.3925 4.60745C14.8297 3.04465 12.7101 2.16668 10.5 2.16668C8.28984 2.16668 6.17023 3.04465 4.60742 4.60745C3.04462 6.17026 2.16665 8.28987 2.16665 10.5C2.16665 12.7101 3.04462 14.8298 4.60742 16.3926C6.17023 17.9554 8.28984 18.8333 10.5 18.8333ZM12.4041 10.0688L8.28956 14.1833C8.19278 14.2801 8.0779 14.3568 7.95147 14.4091C7.82505 14.4614 7.68956 14.4883 7.55274 14.4882C7.41592 14.4882 7.28044 14.4612 7.15406 14.4088C7.02767 14.3564 6.91284 14.2796 6.81613 14.1828C6.71941 14.086 6.64271 13.9712 6.59039 13.8447C6.53808 13.7183 6.51118 13.5828 6.51123 13.446C6.51132 13.1697 6.62119 12.9047 6.81665 12.7094L10.9312 8.5948H7.19581C6.91955 8.5948 6.65459 8.48506 6.45924 8.28971C6.26389 8.09435 6.15415 7.8294 6.15415 7.55314C6.15415 7.27687 6.26389 7.01192 6.45924 6.81657C6.65459 6.62122 6.91955 6.51147 7.19581 6.51147H13.4458C13.5827 6.51106 13.7184 6.53772 13.8449 6.58992C13.9715 6.64212 14.0865 6.71884 14.1833 6.81565C14.2801 6.91246 14.3568 7.02745 14.409 7.15402C14.4612 7.28059 14.4879 7.41623 14.4875 7.55314V13.8031C14.4875 14.0794 14.3777 14.3444 14.1824 14.5397C13.987 14.7351 13.7221 14.8448 13.4458 14.8448C13.1695 14.8448 12.9046 14.7351 12.7092 14.5397C12.5139 14.3444 12.4041 14.0794 12.4041 13.8031V10.0698V10.0688Z"/>
</svg>
