<svg width="21" height="21" viewBox="0 0 21 21" xmlns="http://www.w3.org/2000/svg">
<path d="M10.5 20.9167C4.74689 20.9167 0.0833435 16.2531 0.0833435 10.5C0.0833435 4.74689 4.74689 0.0833435 10.5 0.0833435C16.2531 0.0833435 20.9167 4.74689 20.9167 10.5C20.9167 16.2531 16.2531 20.9167 10.5 20.9167ZM10.5 18.8333C12.7101 18.8333 14.8298 17.9554 16.3926 16.3926C17.9554 14.8298 18.8333 12.7101 18.8333 10.5C18.8333 8.28987 17.9554 6.17026 16.3926 4.60745C14.8298 3.04465 12.7101 2.16668 10.5 2.16668C8.28987 2.16668 6.17026 3.04465 4.60745 4.60745C3.04465 6.17026 2.16668 8.28987 2.16668 10.5C2.16668 12.7101 3.04465 14.8298 4.60745 16.3926C6.17026 17.9554 8.28987 18.8333 10.5 18.8333ZM8.59584 10.9313L12.7104 6.81668C12.8072 6.71996 12.9221 6.64326 13.0485 6.59095C13.1749 6.53863 13.3104 6.51173 13.4473 6.51178C13.5841 6.51183 13.7195 6.53882 13.8459 6.59123C13.9723 6.64363 14.0872 6.72042 14.1839 6.8172C14.2806 6.91398 14.3573 7.02886 14.4096 7.15529C14.4619 7.28171 14.4888 7.4172 14.4888 7.55402C14.4887 7.69085 14.4617 7.82632 14.4093 7.95271C14.3569 8.07909 14.2801 8.19392 14.1833 8.29064L10.0688 12.4052H13.8042C14.0804 12.4052 14.3454 12.515 14.5407 12.7103C14.7361 12.9057 14.8458 13.1706 14.8458 13.4469C14.8458 13.7232 14.7361 13.9881 14.5407 14.1835C14.3454 14.3788 14.0804 14.4886 13.8042 14.4886H7.55418C7.41727 14.489 7.28163 14.4623 7.15506 14.4101C7.02849 14.3579 6.9135 14.2812 6.81669 14.1844C6.71988 14.0876 6.64316 13.9726 6.59096 13.846C6.53876 13.7194 6.5121 13.5838 6.51251 13.4469V7.19689C6.51251 6.92062 6.62226 6.65567 6.81761 6.46032C7.01296 6.26497 7.27791 6.15522 7.55418 6.15522C7.83044 6.15522 8.0954 6.26497 8.29075 6.46032C8.4861 6.65567 8.59584 6.92062 8.59584 7.19689V10.9313Z"/>
</svg>
