<svg width="24" height="26" viewBox="0 0 24 26" xmlns="http://www.w3.org/2000/svg">
<path d="M3.89314 18L5.36814 16.5225C5.84064 16.05 6.10064 15.4225 6.10064 14.755V8.90875C6.10064 7.2125 6.83814 5.59125 8.12564 4.46375C9.42314 3.32625 11.0756 2.82625 12.7969 3.0525C15.7056 3.43875 17.8994 6.06875 17.8994 9.17125V14.755C17.8994 15.4225 18.1594 16.05 18.6306 16.5213L20.1069 18H3.89314ZM14.4995 20.9263C14.4995 22.05 13.3545 23 11.9995 23C10.6445 23 9.49948 22.05 9.49948 20.9263V20.5H14.4995V20.9263ZM22.6507 17.01L20.3994 14.755V9.17126C20.3994 4.82001 17.2719 1.12376 13.1244 0.575005C10.7219 0.255005 8.29694 0.988755 6.47819 2.58376C4.64819 4.18626 3.60069 6.49126 3.60069 8.90876L3.59944 14.755L1.34819 17.01C0.761943 17.5975 0.588193 18.4713 0.905693 19.2375C1.22444 20.005 1.96569 20.5 2.79569 20.5H6.99944V20.9263C6.99944 23.4488 9.24194 25.5 11.9994 25.5C14.7569 25.5 16.9994 23.4488 16.9994 20.9263V20.5H21.2032C22.0332 20.5 22.7732 20.005 23.0907 19.2388C23.4094 18.4713 23.2369 17.5963 22.6507 17.01Z"/>
</svg>
