<svg width="21" height="21" viewBox="0 0 21 21" xmlns="http://www.w3.org/2000/svg">
<path d="M9.85206 13.1042H17.7916C18.0679 13.1042 18.3329 12.9944 18.5282 12.7991C18.7236 12.6037 18.8333 12.3388 18.8333 12.0625V3.72916C18.8333 3.45289 18.7236 3.18794 18.5282 2.99259C18.3329 2.79724 18.0679 2.68749 17.7916 2.68749H3.20831C2.93205 2.68749 2.66709 2.79724 2.47174 2.99259C2.27639 3.18794 2.16665 3.45289 2.16665 3.72916V12.0625C2.16665 12.3388 2.27639 12.6037 2.47174 12.7991C2.66709 12.9944 2.93205 13.1042 3.20831 13.1042C3.48458 13.1042 3.74953 13.2139 3.94488 13.4093C4.14023 13.6046 4.24998 13.8696 4.24998 14.1458V17.2844L9.85206 13.1042ZM3.20831 0.604156H17.7916C18.6204 0.604156 19.4153 0.933397 20.0014 1.51945C20.5874 2.1055 20.9166 2.90036 20.9166 3.72916V12.0625C20.9166 12.8913 20.5874 13.6861 20.0014 14.2722C19.4153 14.8583 18.6204 15.1875 17.7916 15.1875H10.5437L3.83123 20.1958C3.67632 20.3114 3.49231 20.3816 3.29979 20.3986C3.10726 20.4155 2.91381 20.3786 2.74107 20.2919C2.56833 20.2052 2.42312 20.0722 2.32167 19.9077C2.22022 19.7432 2.16655 19.5537 2.16665 19.3604V15.1875C1.61411 15.1875 1.08421 14.968 0.693507 14.5773C0.302806 14.1866 0.083313 13.6567 0.083313 13.1042V3.72916C0.083313 2.90036 0.412553 2.1055 0.998604 1.51945C1.58466 0.933397 2.37951 0.604156 3.20831 0.604156V0.604156Z"/>
</svg>
