<svg width="25" height="25" viewBox="0 0 25 25" fill="none" xmlns="http://www.w3.org/2000/svg">
<path d="M20.8333 9.375H11.4583C10.3077 9.375 9.375 10.3077 9.375 11.4583V20.8333C9.375 21.9839 10.3077 22.9167 11.4583 22.9167H20.8333C21.9839 22.9167 22.9167 21.9839 22.9167 20.8333V11.4583C22.9167 10.3077 21.9839 9.375 20.8333 9.375Z" stroke="#AEAEB4" stroke-width="2" stroke-linecap="round" stroke-linejoin="round"/>
<path d="M5.20868 15.625H4.16701C3.61448 15.625 3.08457 15.4055 2.69387 15.0148C2.30317 14.6241 2.08368 14.0942 2.08368 13.5417V4.16666C2.08368 3.61413 2.30317 3.08422 2.69387 2.69352C3.08457 2.30282 3.61448 2.08333 4.16701 2.08333H13.542C14.0945 2.08333 14.6245 2.30282 15.0152 2.69352C15.4059 3.08422 15.6253 3.61413 15.6253 4.16666V5.20833" stroke="#AEAEB4" stroke-width="2" stroke-linecap="round" stroke-linejoin="round"/>
</svg>
