<svg width="30" height="30" viewBox="0 0 30 30" xmlns="http://www.w3.org/2000/svg">
<path d="M18.75 23.75V18.75H23.75L23.7513 23.75H18.75ZM23.75 16.25H18.75C17.3713 16.25 16.25 17.3713 16.25 18.75V23.75C16.25 25.1287 17.3713 26.25 18.75 26.25H23.75C25.1287 26.25 26.25 25.1287 26.25 23.75V18.75C26.25 17.3713 25.1287 16.25 23.75 16.25ZM6.25 23.75V18.75H11.25L11.2513 23.75H6.25ZM11.25 16.25H6.25C4.87125 16.25 3.75 17.3713 3.75 18.75V23.75C3.75 25.1287 4.87125 26.25 6.25 26.25H11.25C12.6287 26.25 13.75 25.1287 13.75 23.75V18.75C13.75 17.3713 12.6287 16.25 11.25 16.25ZM18.75 11.25V6.25H23.75L23.7513 11.25H18.75ZM23.75 3.75H18.75C17.3713 3.75 16.25 4.87125 16.25 6.25V11.25C16.25 12.6287 17.3713 13.75 18.75 13.75H23.75C25.1287 13.75 26.25 12.6287 26.25 11.25V6.25C26.25 4.87125 25.1287 3.75 23.75 3.75ZM6.25 11.25V6.25H11.25L11.2513 11.25H6.25ZM11.25 3.75H6.25C4.87125 3.75 3.75 4.87125 3.75 6.25V11.25C3.75 12.6287 4.87125 13.75 6.25 13.75H11.25C12.6287 13.75 13.75 12.6287 13.75 11.25V6.25C13.75 4.87125 12.6287 3.75 11.25 3.75Z"/>
</svg>
