<svg width="26" height="26" viewBox="0 0 26 26" xmlns="http://www.w3.org/2000/svg">
<path d="M6.7502 12.7491C6.7502 12.0591 7.3102 11.4991 8.0002 11.4991C8.6902 11.4991 9.2502 12.0591 9.2502 12.7491C9.2502 13.4391 8.6902 13.9991 8.0002 13.9991C7.3102 13.9991 6.7502 13.4391 6.7502 12.7491ZM13.0002 11.4991C12.3102 11.4991 11.7502 12.0591 11.7502 12.7491C11.7502 13.4391 12.3102 13.9991 13.0002 13.9991C13.6902 13.9991 14.2502 13.4391 14.2502 12.7491C14.2502 12.0591 13.6902 11.4991 13.0002 11.4991ZM18.0002 11.4991C17.3102 11.4991 16.7502 12.0591 16.7502 12.7491C16.7502 13.4391 17.3102 13.9991 18.0002 13.9991C18.6902 13.9991 19.2502 13.4391 19.2502 12.7491C19.2502 12.0591 18.6902 11.4991 18.0002 11.4991ZM22.8732 14.3677C22.2395 18.4352 18.9607 21.809 14.8995 22.5702C12.9382 22.9402 10.9407 22.729 9.12822 21.9615C8.61447 21.744 8.08322 21.634 7.56197 21.634C7.32447 21.634 7.08947 21.6565 6.85822 21.7027L3.34322 22.4052L4.04697 18.884C4.19447 18.1527 4.10447 17.3702 3.78822 16.6215C3.02072 14.809 2.81072 12.8127 3.17947 10.8502C3.94072 6.78896 7.31322 3.51021 11.382 2.87646C14.6195 2.37271 17.7857 3.39271 20.0707 5.67771C22.357 7.96396 23.3782 11.1315 22.8732 14.3677ZM21.8395 3.91021C18.9832 1.05521 15.0333 -0.218536 10.997 0.405214C5.90075 1.20021 1.67575 5.30521 0.722 10.389C0.262 12.8365 0.527 15.329 1.48575 17.5952C1.607 17.884 1.6445 18.1527 1.597 18.394L0.5245 23.754C0.442 24.164 0.57075 24.5877 0.867 24.8827C1.10325 25.1202 1.422 25.249 1.75075 25.249C1.832 25.249 1.91325 25.2415 1.99575 25.2252L7.3495 24.154C7.657 24.0952 7.9545 24.1815 8.15325 24.264C10.422 25.2227 12.9145 25.4865 15.3595 25.0277C20.4445 24.074 24.5495 19.849 25.3445 14.7527C25.972 10.719 24.6957 6.76646 21.8395 3.91021Z"/>
</svg>
