<svg width="30" height="30" viewBox="0 0 30 30" xmlns="http://www.w3.org/2000/svg">
<path d="M14.2181 25H15.7819V24.0413C15.7819 22.8725 16.5006 21.8225 17.6119 21.3638C18.7619 20.885 20.0181 21.12 20.8456 21.9525L21.5194 22.6287L22.6294 21.5187L21.9481 20.8387C21.1194 20.0112 20.8856 18.7563 21.3519 17.6425C21.3519 17.6425 21.3531 17.6413 21.3531 17.64L21.3669 17.605C21.8219 16.5012 22.8731 15.7812 24.0419 15.7812H24.9994V14.2188H24.0419C22.8731 14.2188 21.8219 13.5 21.3644 12.3888C20.8831 11.2387 21.1194 9.9825 21.9519 9.15375L22.6281 8.48L21.5194 7.37125L20.8381 8.0525C20.0106 8.88 18.7569 9.11375 17.6431 8.64875C16.5019 8.1775 15.7819 7.1275 15.7819 5.95875V5H14.2181V5.95875C14.2181 7.1275 13.4994 8.1775 12.3881 8.63625C11.2394 9.1175 9.98312 8.88125 9.15437 8.0475L8.48062 7.37125L7.37062 8.48125L8.05187 9.16125C8.87937 9.98875 9.11437 11.2438 8.64812 12.3575C8.17812 13.4987 7.12687 14.2188 5.95812 14.2188H4.99937V15.7812H5.95812C7.12687 15.7812 8.17812 16.5 8.63562 17.6112C9.11687 18.7612 8.88062 20.0175 8.04812 20.8463L7.37187 21.52L8.48062 22.6287L9.16187 21.9475C9.98937 21.12 11.2431 20.8862 12.3569 21.3512C13.4981 21.8225 14.2181 22.8725 14.2181 24.0413V25ZM16.1781 27.5H13.8131C12.6581 27.5 11.7181 26.56 11.7181 25.405V24.0413C11.7181 23.8575 11.5719 23.7313 11.4344 23.675C11.2544 23.6013 11.0619 23.5863 10.9294 23.715L9.96687 24.6787C9.14687 25.4963 7.81437 25.4988 6.99562 24.6787L5.32062 23.0037C4.92312 22.6063 4.70562 22.0788 4.70562 21.5163C4.70687 20.955 4.92562 20.4275 5.32437 20.03L6.28437 19.0737C6.41562 18.9425 6.40187 18.75 6.34312 18.6112C6.26812 18.4275 6.14312 18.2812 5.95812 18.2812H4.60312C3.44312 18.2812 2.49937 17.3387 2.49937 16.1788V13.8137C2.49937 12.6575 3.43937 11.7188 4.59562 11.7188H5.95812C6.14187 11.7188 6.26812 11.5712 6.32437 11.4338C6.39937 11.2537 6.41437 11.06 6.28437 10.93L5.32062 9.9675C4.50312 9.14625 4.50312 7.81375 5.32062 6.99625L6.99562 5.32125C7.39312 4.92375 7.91937 4.70625 8.48062 4.70625H8.48312C9.04437 4.70625 9.57312 4.925 9.96937 5.32375L10.9256 6.285C11.0569 6.4175 11.2506 6.4025 11.3894 6.34375C11.5719 6.2675 11.7181 6.1425 11.7181 5.95875V4.60375C11.7181 3.44375 12.6619 2.5 13.8219 2.5H16.1869C17.3419 2.5 18.2819 3.44 18.2819 4.595V5.95875C18.2819 6.1425 18.4281 6.26875 18.5656 6.325C18.7469 6.4 18.9394 6.41625 19.0706 6.285L20.0331 5.32125C20.8531 4.50375 22.1856 4.50125 23.0044 5.32125L24.6806 6.9975C25.0781 7.39375 25.2956 7.92125 25.2944 8.48375C25.2944 9.04375 25.0756 9.5725 24.6769 9.96875L23.7156 10.9263C23.5844 11.0575 23.5981 11.25 23.6569 11.3888C23.7319 11.5725 23.8569 11.7188 24.0419 11.7188H25.3969C26.5569 11.7188 27.4994 12.6613 27.4994 13.8212V16.1863C27.4994 17.3425 26.5606 18.2812 25.4044 18.2812H24.0419C23.8581 18.2812 23.7319 18.4288 23.6756 18.5662C23.6744 18.5675 23.6594 18.605 23.6581 18.6075C23.6006 18.7463 23.5856 18.94 23.7156 19.07L24.6794 20.0325C25.4969 20.8538 25.4969 22.1863 24.6794 23.0037L23.0044 24.6787C22.6069 25.0763 22.0806 25.2938 21.5194 25.2938H21.5169C20.9556 25.2938 20.4269 25.075 20.0306 24.6762L19.0744 23.715C18.9431 23.5837 18.7481 23.5987 18.6106 23.6562C18.4281 23.7325 18.2819 23.8575 18.2819 24.0413V25.3962C18.2819 26.5562 17.3381 27.5 16.1781 27.5ZM15 13.125C13.9662 13.125 13.125 13.9663 13.125 15C13.125 16.0337 13.9662 16.875 15 16.875C16.0337 16.875 16.875 16.0337 16.875 15C16.875 13.9663 16.0337 13.125 15 13.125ZM15 19.375C12.5875 19.375 10.625 17.4125 10.625 15C10.625 12.5875 12.5875 10.625 15 10.625C17.4125 10.625 19.375 12.5875 19.375 15C19.375 17.4125 17.4125 19.375 15 19.375Z"/>
</svg>
