<svg width="30" height="30" viewBox="0 0 30 30" xmlns="http://www.w3.org/2000/svg">
<path d="M21.25 10.0005H5.00002C4.31002 10.0005 3.75002 9.44173 3.75002 8.75048C3.75002 8.05923 4.31002 7.50048 5.00002 7.50048H21.3525L19.405 5.98798C18.86 5.56423 18.7613 4.77798 19.185 4.23423C19.6088 3.68798 20.395 3.58923 20.9388 4.01298L25.7663 7.76298C26.075 8.00173 26.2525 8.37048 26.25 8.76173C26.2475 9.15048 26.0625 9.51673 25.75 9.75048L20.75 13.5005C20.525 13.6692 20.2613 13.7505 20.0013 13.7505C19.6213 13.7505 19.245 13.578 19 13.2505C18.5863 12.698 18.6975 11.9142 19.25 11.5005L21.25 10.0005ZM8.75003 18.7505H25C25.69 18.7505 26.25 19.3092 26.25 20.0005C26.25 20.6917 25.69 21.2505 25 21.2505H8.64753L10.595 22.763C11.14 23.1867 11.2388 23.973 10.815 24.5167C10.5688 24.8342 10.2 25.0005 9.82753 25.0005C9.55878 25.0005 9.28878 24.9155 9.06128 24.738L4.23378 20.988C3.92503 20.7492 3.74753 20.3805 3.75003 19.9892C3.75253 19.6005 3.93753 19.2342 4.25003 19.0005L9.25003 15.2505C9.80378 14.8367 10.5863 14.948 11 15.5005C11.4138 16.053 11.3025 16.8367 10.75 17.2505L8.75003 18.7505Z"/>
</svg>
