<svg width="30" height="30" viewBox="0 0 30 30" xmlns="http://www.w3.org/2000/svg">
<path d="M27.1036 12.9076C27.0945 12.9274 27.0855 12.9473 27.077 12.9675C27.0684 12.9884 27.0617 13.0103 27.0549 13.0321C27.044 13.0675 27.0331 13.1028 27.0145 13.1337C26.9775 13.195 26.9292 13.2465 26.8807 13.2981C26.8669 13.3128 26.8531 13.3275 26.8395 13.3425C26.8244 13.3581 26.811 13.3753 26.7976 13.3925C26.779 13.4164 26.7603 13.4403 26.737 13.46C26.667 13.5172 26.5861 13.5569 26.5055 13.5965C26.4997 13.5993 26.494 13.6022 26.4882 13.605C26.4712 13.6133 26.455 13.6237 26.4388 13.6341C26.4158 13.6489 26.3927 13.6637 26.367 13.6725C26.232 13.7225 26.0882 13.75 25.9395 13.75C25.872 13.75 25.802 13.745 25.7332 13.7325L20.4207 12.8512C19.7395 12.7388 19.2795 12.095 19.392 11.4138C19.5045 10.7337 20.147 10.2675 20.8295 10.3863L22.8845 10.7262C21.3282 7.99375 18.357 6.25 15.087 6.25C11.3882 6.25 8.1295 8.3975 6.78325 11.7188C6.587 12.2063 6.11825 12.5 5.6245 12.5C5.46825 12.5 5.3095 12.4713 5.15575 12.4088C4.51575 12.15 4.207 11.4212 4.467 10.7812C6.197 6.51 10.3657 3.75 15.087 3.75C19.352 3.75 23.2282 6.0875 25.1845 9.735L25.6457 7.26875C25.7732 6.59125 26.4282 6.1425 27.1045 6.2725C27.7832 6.39875 28.2307 7.0525 28.1032 7.73125L27.167 12.7312C27.155 12.795 27.1293 12.8513 27.1036 12.9076ZM23.2169 18.2815C23.4756 17.6403 24.2056 17.3328 24.8444 17.5915C25.4844 17.8503 25.7931 18.579 25.5331 19.219C23.8031 23.4903 19.6344 26.2503 14.9131 26.2503C10.6481 26.2503 6.77187 23.9128 4.81562 20.2653L4.35312 22.7303C4.24187 23.3315 3.71687 23.7503 3.12562 23.7503C3.04937 23.7503 2.97187 23.7428 2.89437 23.7278C2.21562 23.6015 1.76937 22.9478 1.89687 22.269L2.83312 17.269C2.84262 17.2199 2.86366 17.1763 2.8848 17.1325C2.89703 17.1072 2.90929 17.0818 2.91937 17.0553C2.92926 17.0303 2.93789 17.0046 2.94654 16.9787C2.96523 16.9229 2.984 16.8669 3.01562 16.819C3.03407 16.7906 3.05819 16.7678 3.08246 16.7449C3.09766 16.7305 3.11291 16.7161 3.12687 16.7003C3.13788 16.6875 3.14877 16.6747 3.15964 16.6619C3.21913 16.5917 3.27808 16.5222 3.35312 16.4715C3.36049 16.4661 3.3693 16.4629 3.378 16.4598C3.38553 16.457 3.39299 16.4543 3.39937 16.4503C3.52062 16.3715 3.65062 16.3103 3.79437 16.279C3.80313 16.277 3.81225 16.2775 3.82134 16.278C3.82912 16.2785 3.83688 16.2789 3.84437 16.2778C3.98187 16.2553 4.12062 16.2415 4.26687 16.2665L9.57937 17.149C10.2606 17.2603 10.7206 17.9053 10.6081 18.5865C10.5069 19.1978 9.97687 19.6315 9.37562 19.6315C9.30812 19.6315 9.23937 19.6265 9.17062 19.614L7.11562 19.274C8.67187 22.0065 11.6431 23.7503 14.9131 23.7503C18.6119 23.7503 21.8706 21.6028 23.2169 18.2815Z"/>
</svg>
