<svg width="26" height="18" viewBox="0 0 26 18" fill="none" xmlns="http://www.w3.org/2000/svg">
<path fill-rule="evenodd" clip-rule="evenodd" d="M13 10.875C11.9663 10.875 11.125 10.0338 11.125 9C11.125 7.96625 11.9663 7.125 13 7.125C14.0338 7.125 14.875 7.96625 14.875 9C14.875 10.0338 14.0338 10.875 13 10.875ZM13 4.625C10.5875 4.625 8.625 6.5875 8.625 9C8.625 11.4125 10.5875 13.375 13 13.375C15.4125 13.375 17.375 11.4125 17.375 9C17.375 6.5875 15.4125 4.625 13 4.625ZM13.2747 15.247C7.89217 15.372 4.38092 10.7682 3.21592 8.9945C4.49842 6.98825 7.72842 2.88075 12.7259 2.75325C18.0872 2.617 21.6184 7.232 22.7834 9.00574C21.5022 11.012 18.2709 15.1195 13.2747 15.247ZM25.3346 8.37825C24.5371 6.98825 20.1321 0.020749 12.6621 0.254499C5.75214 0.429499 1.73339 6.517 0.665892 8.37825C0.444642 8.76325 0.444642 9.237 0.665892 9.622C1.45214 10.9932 5.70214 17.7495 13.0309 17.7495C13.1334 17.7495 13.2359 17.7482 13.3384 17.7457C20.2471 17.5695 24.2671 11.4832 25.3346 9.622C25.5546 9.237 25.5546 8.76325 25.3346 8.37825Z" fill="#AEAEB4"/>
</svg>
